<?xml version="1.0" standalone="no"?>
<!DOCTYPE svg PUBLIC "-//W3C//DTD SVG 20010904//EN"
 "http://www.w3.org/TR/2001/REC-SVG-20010904/DTD/svg10.dtd">
<svg version="1.0" xmlns="http://www.w3.org/2000/svg"
 width="1272.000000pt" height="768.000000pt" viewBox="0 0 1272.000000 768.000000"
 preserveAspectRatio="xMidYMid meet">

<g transform="translate(0.000000,768.000000) scale(0.100000,-0.100000)"
fill="#000000" stroke="none">
<path d="M6067 5989 c-9 -6 -17 -14 -17 -19 0 -16 30 -11 37 5 8 21 1 25 -20
14z"/>
<path d="M6315 5940 c22 -15 32 -16 43 -8 12 10 11 13 -5 19 -10 4 -29 8 -43
8 l-25 1 30 -20z"/>
<path d="M5930 5879 c0 -18 2 -19 15 -9 15 12 12 30 -6 30 -5 0 -9 -10 -9 -21z"/>
<path d="M6305 5880 c-7 -12 2 -30 16 -30 5 0 9 9 9 20 0 21 -15 27 -25 10z"/>
<path d="M3932 5798 c-19 -19 -14 -28 18 -28 17 0 30 4 30 8 0 9 -21 32 -30
32 -3 0 -11 -5 -18 -12z"/>
<path d="M4007 5794 c-4 -4 -7 -21 -7 -37 0 -37 48 -84 95 -93 69 -13 68 20
-4 68 -25 17 -53 39 -61 50 -9 10 -19 16 -23 12z"/>
<path d="M6324 5725 c-3 -14 -4 -28 -1 -31 10 -10 27 7 27 26 0 30 -19 33 -26
5z"/>
<path d="M7230 5695 c-38 -17 -69 -51 -70 -75 0 -8 8 -33 17 -56 16 -38 21
-42 73 -52 44 -9 61 -19 78 -42 20 -26 29 -30 70 -30 49 0 108 27 118 55 11
28 -5 62 -36 75 -22 9 -33 23 -41 51 -18 59 -49 82 -117 86 -36 2 -70 -2 -92
-12z"/>
<path d="M6272 5669 c1 -12 9 -24 16 -27 9 -3 13 3 10 19 -1 12 -9 24 -16 27
-9 3 -13 -3 -10 -19z"/>
<path d="M4980 5665 c0 -8 9 -15 20 -15 11 0 20 7 20 15 0 8 -9 15 -20 15 -11
0 -20 -7 -20 -15z"/>
<path d="M5810 5656 c0 -15 24 -28 34 -19 13 14 5 33 -14 33 -11 0 -20 -6 -20
-14z"/>
<path d="M6400 5640 c0 -5 5 -10 10 -10 6 0 10 5 10 10 0 6 -4 10 -10 10 -5 0
-10 -4 -10 -10z"/>
<path d="M4026 5612 c-2 -4 -1 -14 4 -22 7 -11 12 -12 21 -3 6 6 8 16 5 22 -8
13 -23 14 -30 3z"/>
<path d="M4407 5613 c-15 -14 -6 -61 16 -81 23 -22 51 -27 81 -16 26 10 20 60
-10 83 -26 20 -74 28 -87 14z"/>
<path d="M6255 5600 c-4 -7 -1 -16 6 -21 17 -10 26 8 11 23 -6 6 -12 6 -17 -2z"/>
<path d="M5723 5593 c-24 -9 -14 -33 13 -33 18 0 25 5 22 17 -3 18 -16 24 -35
16z"/>
<path d="M5715 5540 c3 -5 8 -10 11 -10 2 0 4 5 4 10 0 6 -5 10 -11 10 -5 0
-7 -4 -4 -10z"/>
<path d="M5830 5531 c0 -10 7 -24 15 -31 12 -10 16 -9 21 4 3 9 4 23 0 31 -8
21 -36 19 -36 -4z"/>
<path d="M6580 5536 c0 -9 5 -16 10 -16 6 0 10 4 10 9 0 6 -4 13 -10 16 -5 3
-10 -1 -10 -9z"/>
<path d="M6290 5530 c0 -5 5 -10 10 -10 6 0 10 5 10 10 0 6 -4 10 -10 10 -5 0
-10 -4 -10 -10z"/>
<path d="M7073 5530 c-25 -10 -26 -11 -17 -34 9 -23 40 -20 58 6 24 35 6 47
-41 28z"/>
<path d="M1606 5496 c3 -8 18 -19 32 -25 23 -8 24 -10 6 -10 -27 -1 -35 -10
-22 -25 6 -7 25 -11 42 -9 17 1 24 0 14 -3 -30 -10 -29 -32 3 -39 17 -4 33 -4
36 -1 4 3 0 6 -8 6 -8 1 1 7 20 15 41 18 41 18 41 0 0 -8 5 -15 10 -15 6 0 10
5 10 11 0 12 46 8 83 -6 12 -5 17 -2 17 9 0 11 -9 16 -29 16 -28 0 -37 18 -18
36 12 13 8 26 -7 21 -7 -3 -18 -1 -24 5 -8 8 -13 7 -18 -5 -8 -21 -34 -22 -34
-2 0 18 -21 20 -39 3 -10 -11 -11 -10 -6 3 7 19 -19 29 -77 29 -29 0 -36 -3
-32 -14z"/>
<path d="M4966 5494 c-38 -37 -4 -90 52 -80 37 6 82 31 82 46 0 5 -10 18 -22
30 -26 24 -90 27 -112 4z"/>
<path d="M4172 5484 c-26 -18 -28 -30 -6 -52 13 -13 15 -33 12 -108 -2 -51 -6
-96 -9 -98 -3 -3 -98 -3 -211 1 l-206 6 -10 31 -10 31 -1 -32 c-1 -27 -5 -33
-22 -33 -18 0 -19 2 -9 15 17 21 -6 20 -27 0 -17 -18 -51 -11 -69 13 -6 8 -26
22 -45 31 -27 13 -35 23 -40 54 -10 61 -19 55 -19 -14 0 -43 -3 -59 -10 -49
-7 11 -11 9 -19 -13 -9 -24 -16 -27 -48 -26 -21 2 -70 -1 -109 -5 -60 -7 -72
-6 -77 7 -4 11 -2 14 9 10 9 -3 14 2 14 16 0 14 -6 21 -20 21 -21 0 -170 140
-170 159 0 16 -30 13 -36 -3 -6 -15 71 -143 115 -190 l26 -29 -85 6 c-47 3
-110 2 -140 -2 -44 -7 -24 -9 100 -11 85 -2 166 -5 180 -6 14 -1 82 -2 151 -3
118 -1 127 -2 132 -21 5 -19 0 -20 -86 -20 -72 0 -88 -3 -79 -12 7 -7 18 -13
25 -14 7 0 20 -2 30 -2 9 -1 17 -9 17 -17 0 -10 10 -15 31 -15 16 0 28 -4 24
-9 -3 -5 -29 -8 -58 -5 -28 2 -118 7 -199 10 -109 4 -148 9 -152 19 -3 10 0
12 11 8 11 -4 14 -2 11 8 -6 17 -57 24 -71 10 -8 -8 -7 -11 2 -11 7 0 9 -5 6
-10 -4 -6 -15 -8 -26 -5 -10 4 -19 2 -19 -4 0 -5 -15 -11 -32 -13 -31 -3 -29
-5 27 -23 l60 -19 -110 -7 c-108 -6 -171 -21 -161 -38 10 -16 -20 -42 -57 -48
-36 -5 -37 -5 -37 26 0 17 -5 31 -11 31 -7 0 -9 -11 -6 -27 3 -18 0 -34 -10
-45 -24 -27 -9 -64 32 -78 19 -6 39 -9 44 -6 5 3 16 3 25 0 12 -5 14 -10 6
-19 -9 -11 -5 -14 17 -18 18 -3 11 -5 -19 -6 -27 0 -48 -5 -48 -11 0 -5 5 -10
10 -10 6 0 10 -4 10 -10 0 -5 -7 -10 -15 -10 -8 0 -19 -9 -25 -20 -10 -18 -8
-20 20 -20 18 0 33 -6 36 -15 3 -8 15 -17 25 -20 16 -5 17 -10 9 -20 -8 -10
-27 -12 -64 -8 -47 5 -54 3 -58 -15 -3 -12 1 -26 12 -35 11 -9 20 -37 24 -77
6 -53 13 -69 39 -95 41 -41 116 -69 258 -95 63 -11 122 -23 132 -26 31 -9 18
-20 -20 -16 -23 2 -33 0 -26 -5 19 -14 -88 -6 -154 11 -86 23 -150 21 -163 -3
-8 -16 -6 -21 10 -26 26 -8 26 -31 1 -31 -11 0 -18 3 -17 6 2 3 -5 14 -15 24
-17 17 -19 18 -19 3 0 -9 -5 -17 -10 -17 -7 0 -7 -6 -1 -18 7 -13 6 -23 -1
-30 -17 -17 -23 -15 -68 13 -23 15 -40 20 -40 13 0 -6 -3 -8 -6 -5 -4 4 -1 13
5 21 10 12 17 13 32 3 17 -10 22 -9 30 6 6 9 15 14 21 11 9 -6 27 12 28 27 0
4 -20 9 -44 10 -24 2 -42 1 -39 -3 6 -11 -5 -10 -29 3 -18 9 -19 8 -13 -10 5
-18 2 -21 -22 -20 -60 3 -88 14 -88 34 0 16 -7 20 -35 22 -19 0 -63 3 -98 6
-34 3 -60 2 -57 -3 3 -4 -4 -10 -15 -13 -14 -3 -20 0 -20 10 0 13 -3 13 -15 3
-12 -10 -16 -9 -21 4 -5 13 -14 15 -40 10 -22 -4 -34 -2 -34 5 0 6 -9 11 -20
11 -11 0 -19 -3 -19 -7 3 -18 -2 -33 -10 -33 -5 0 -7 8 -4 18 5 19 -21 27 -42
12 -5 -4 -17 -10 -26 -13 -13 -4 -16 -1 -12 14 4 13 0 19 -11 19 -9 0 -16 -5
-16 -11 0 -8 -4 -8 -14 0 -8 7 -38 13 -68 16 -84 5 -169 15 -221 26 -26 5 -69
9 -95 9 l-47 0 -16 -51 c-9 -27 -12 -52 -7 -55 4 -3 6 -10 3 -15 -4 -5 1 -9 9
-9 9 0 15 -6 14 -12 -2 -8 21 -19 58 -28 34 -8 68 -21 76 -27 10 -9 36 -11 78
-8 41 3 68 1 77 -7 9 -7 66 -14 136 -18 67 -3 128 -9 135 -13 7 -5 12 -3 12 4
0 7 10 9 30 6 25 -6 31 -3 36 18 3 13 3 28 0 34 -4 5 -2 12 3 15 15 9 21 -22
10 -50 -5 -15 -8 -27 -7 -28 25 -13 79 -25 91 -20 9 3 39 1 68 -5 36 -8 55 -8
64 -1 9 8 14 6 19 -5 8 -21 30 -19 22 3 -5 13 -1 11 13 -5 14 -17 21 -19 30
-10 13 13 33 16 41 7 21 -22 48 -27 79 -14 41 17 42 17 35 0 -7 -17 55 -28 74
-13 9 7 16 5 26 -9 12 -16 18 -16 40 -6 25 11 55 57 44 67 -3 3 -19 7 -35 8
-24 2 -29 6 -25 21 4 16 6 17 14 2 12 -22 28 -20 28 2 0 26 10 33 25 19 9 -8
10 -16 3 -24 -6 -8 -5 -20 4 -35 7 -13 13 -32 13 -43 0 -16 7 -20 38 -22 22 0
37 4 37 10 0 7 5 5 10 -3 9 -13 12 -13 21 4 30 51 88 75 81 34 -1 -10 7 -18
22 -22 14 -3 33 -20 43 -36 9 -17 20 -30 23 -30 3 0 6 -9 6 -20 0 -15 -7 -20
-29 -20 -15 0 -26 -4 -22 -9 3 -5 -4 -12 -15 -16 -26 -8 -25 -19 3 -33 12 -6
16 -11 10 -11 -7 -1 -13 -9 -13 -19 0 -10 -11 -25 -25 -32 -32 -17 -34 -50 -2
-50 35 0 67 -11 61 -21 -3 -5 -14 -9 -25 -9 -10 0 -19 -4 -19 -10 0 -5 19 -10
43 -10 59 0 87 -9 80 -26 -3 -9 2 -14 15 -14 12 0 24 -5 28 -11 3 -6 15 -9 25
-6 12 3 19 0 19 -9 0 -8 -10 -14 -25 -14 -14 0 -34 -5 -44 -12 -15 -9 -41 -8
-119 5 l-100 17 -44 -45 c-41 -41 -50 -45 -93 -45 -120 0 -561 -61 -558 -77 2
-11 -76 -33 -114 -33 -8 0 -45 15 -81 32 -58 29 -75 33 -142 31 -53 -1 -96 -9
-145 -27 -38 -14 -64 -26 -57 -26 27 0 0 -19 -37 -25 -22 -3 -47 -13 -58 -21
-16 -13 -16 -14 12 -8 17 4 38 11 47 15 26 14 27 11 11 -30 -14 -35 -19 -39
-62 -45 -25 -3 -124 -29 -219 -56 -95 -28 -179 -50 -185 -50 -26 1 24 20 139
54 66 19 134 41 150 47 l29 12 -24 6 c-23 6 -21 8 18 20 24 7 41 15 38 18 -14
13 -446 -112 -545 -159 -37 -17 -90 -34 -118 -38 -60 -9 -110 -38 -95 -53 7
-7 5 -15 -7 -23 -16 -12 -15 -13 4 -14 12 0 69 14 128 31 59 16 115 29 124 27
23 -5 -144 -69 -188 -72 -19 -1 -47 -8 -62 -14 -23 -9 -166 -32 -203 -32 -6 0
-20 -7 -31 -15 -11 -9 -13 -13 -4 -10 9 3 31 -6 50 -20 39 -29 51 -30 89 -10
16 8 77 23 135 33 85 15 106 16 106 5 0 -15 36 -18 44 -4 3 5 15 7 26 4 11 -3
20 -1 20 4 0 5 8 9 18 10 48 4 72 7 126 19 32 7 64 18 69 23 6 6 19 11 30 11
10 0 68 12 128 26 86 21 109 31 109 44 0 13 7 17 31 14 17 -2 44 3 61 12 16 8
36 13 45 10 12 -5 12 -10 -3 -34 -14 -24 -29 -32 -93 -47 -42 -9 -204 -51
-361 -91 -157 -41 -305 -77 -330 -81 -61 -8 -160 -54 -157 -73 1 -11 -10 -16
-46 -18 -43 -3 -62 -11 -133 -60 -22 -14 -17 -14 118 9 49 8 84 9 97 3 34 -15
10 -31 -59 -38 -62 -6 -64 -5 -40 9 l25 16 -35 -5 c-123 -19 -121 -18 -115
-36 4 -12 -2 -24 -17 -34 -51 -36 42 -57 138 -32 76 20 72 20 70 -1 -1 -16 8
-18 73 -17 41 1 68 -2 60 -6 -25 -14 -130 -32 -146 -25 -22 8 -164 -37 -160
-50 2 -5 25 -11 50 -13 54 -4 64 -22 12 -22 -19 0 -35 -4 -35 -9 0 -5 -8 -11
-17 -13 -13 -2 -9 -9 17 -25 l35 -23 -32 0 c-26 0 -33 -4 -33 -19 0 -14 9 -21
30 -25 104 -20 101 -17 34 -37 -33 -10 -70 -29 -82 -41 l-21 -23 55 -59 c29
-33 54 -61 54 -63 0 -1 -8 -3 -17 -3 -16 0 -15 -3 4 -18 11 -9 23 -26 25 -37
2 -15 12 -21 38 -23 19 -1 45 -8 57 -14 13 -6 33 -7 50 -3 15 5 32 7 36 6 13
-2 50 -1 84 3 22 3 33 -1 37 -11 5 -12 15 -14 44 -8 20 4 43 12 51 18 8 7 16
11 18 10 10 -8 23 -1 23 12 0 18 56 21 62 4 3 -9 9 -9 25 0 31 16 43 14 36 -6
-6 -15 -4 -16 8 -6 12 10 18 10 28 0 9 -9 14 -9 21 2 7 12 13 12 42 -2 20 -10
26 -17 16 -17 -23 0 -23 -17 0 -29 14 -7 21 -5 30 10 8 13 9 19 1 19 -5 0 -7
5 -4 10 3 6 -4 10 -17 11 -22 0 -22 1 -3 8 13 6 23 4 28 -5 10 -17 38 -18 34
-2 -2 11 26 18 80 18 12 0 25 5 28 10 9 14 42 13 47 -2 3 -8 12 -9 36 0 19 7
34 7 37 1 10 -15 28 -10 21 6 -5 14 -4 14 16 0 28 -19 48 -19 48 0 0 12 4 11
20 -5 22 -22 45 -27 37 -7 -3 8 7 12 32 13 20 1 76 8 125 17 78 14 95 15 130
3 60 -21 87 -22 124 -7 22 9 46 11 75 6 50 -9 68 -9 212 0 61 4 125 8 143 8
17 0 32 3 32 6 0 3 15 7 33 8 17 1 61 4 97 8 36 4 100 6 142 5 69 -1 78 1 88
20 9 16 15 19 23 11 7 -7 6 -16 -6 -29 -16 -18 -15 -20 33 -42 62 -29 53 -35
-65 -45 -80 -6 -146 -14 -254 -31 -26 -5 -42 0 -75 24 -24 17 -56 34 -72 37
l-29 6 27 -16 c15 -8 32 -24 38 -34 8 -16 5 -20 -23 -25 -84 -16 -337 -37
-607 -51 -356 -18 -452 -24 -508 -31 -32 -5 -48 -2 -61 11 -16 14 -34 15 -130
9 -87 -5 -135 -3 -219 11 -67 11 -119 15 -138 10 -16 -4 -23 -10 -16 -12 19
-7 14 -23 -5 -17 -17 5 -17 5 -1 -6 18 -11 25 -40 10 -40 -4 0 -32 9 -62 19
-30 11 -57 18 -61 15 -3 -2 -4 -14 -2 -27 4 -22 11 -25 80 -31 41 -4 105 -4
142 0 55 5 69 3 80 -10 18 -21 69 -22 67 -1 -2 23 304 34 337 12 17 -11 35
-12 77 -6 30 4 81 8 112 8 53 1 58 -1 55 -20 -1 -16 6 -24 28 -32 17 -5 42
-18 56 -28 30 -21 118 -53 126 -45 3 2 17 0 32 -6 14 -6 55 -13 91 -17 81 -8
84 -23 15 -68 -56 -37 -81 -40 -149 -17 -34 12 -44 19 -35 25 22 14 -3 25 -85
37 -149 23 -159 24 -153 8 4 -10 -5 -15 -32 -20 -83 -13 -69 -66 17 -66 61 0
97 23 81 52 -10 19 -9 20 23 13 47 -9 158 -62 158 -74 0 -16 -19 -13 -67 9
-46 20 -58 12 -21 -14 17 -12 50 -16 138 -16 63 0 121 -4 129 -9 12 -8 12 -18
-3 -66 -10 -31 -17 -57 -15 -59 10 -8 105 -36 124 -36 11 0 26 5 33 12 6 6 25
11 41 10 21 0 40 8 59 28 27 27 29 27 40 9 7 -10 21 -19 32 -19 22 0 27 15 8
26 -7 5 -5 11 8 21 18 13 18 15 1 24 -27 16 -21 28 28 51 25 12 45 27 45 34 0
6 11 15 25 18 14 4 25 10 25 15 0 5 24 7 53 5 51 -5 99 11 69 23 -19 7 -4 23
23 23 29 0 41 -16 25 -35 -18 -21 13 -65 45 -65 25 0 50 31 42 53 -2 7 5 17
17 24 l21 12 -22 1 c-13 0 -23 5 -23 12 0 6 -7 19 -16 29 -10 11 -12 19 -5 24
6 3 11 1 11 -5 0 -8 9 -10 25 -6 21 5 25 3 25 -15 0 -15 5 -20 22 -17 27 4 36
31 37 118 1 66 -11 98 -49 127 -11 9 -12 15 -4 23 31 31 179 35 154 4 -9 -10
-1 -12 47 -8 102 8 126 13 134 26 6 9 14 7 33 -11 20 -19 26 -20 33 -8 10 18
62 29 127 27 31 0 59 6 81 19 24 14 36 16 44 8 8 -8 19 -8 40 -1 19 8 34 8 46
2 13 -8 35 -3 85 17 37 15 74 25 81 22 9 -3 6 -8 -11 -14 l-24 -10 21 -12 c33
-17 45 -14 38 10 -6 19 -4 20 25 14 17 -4 53 -8 80 -9 27 -2 56 -9 65 -16 13
-10 22 -7 59 24 46 37 71 45 79 24 4 -10 7 -10 18 0 7 6 21 12 31 12 10 0 17
6 16 13 -2 7 7 12 22 11 14 -1 29 5 35 13 12 16 63 23 66 8 0 -5 -24 -18 -55
-29 -31 -10 -56 -23 -56 -30 0 -6 -9 -17 -20 -24 -11 -7 -20 -19 -20 -28 0 -9
-11 -29 -25 -46 -15 -18 -25 -42 -25 -61 0 -18 -6 -44 -14 -59 -8 -14 -10 -30
-6 -35 4 -4 13 -25 20 -46 6 -20 21 -42 32 -48 15 -8 18 -17 14 -35 -9 -35 2
-49 23 -30 26 23 81 32 81 14 0 -13 5 -13 38 2 46 22 133 37 116 20 -9 -9 -8
-18 2 -38 8 -15 14 -33 14 -39 0 -7 8 -13 19 -13 10 0 24 -7 31 -15 7 -8 28
-15 46 -15 27 0 37 -5 46 -25 15 -32 23 -32 44 4 10 16 28 34 41 40 31 14 33
14 33 -4 0 -8 3 -15 8 -15 4 0 12 -10 17 -21 14 -30 30 -25 30 9 0 20 -4 26
-17 24 -12 -2 -16 2 -12 13 4 9 19 15 40 15 45 0 100 27 113 56 11 25 35 30
60 15 17 -11 65 4 104 33 18 13 27 29 27 48 0 23 4 28 24 28 39 0 77 19 83 40
3 11 13 20 23 20 10 0 23 7 30 15 15 18 61 20 79 3 11 -11 12 -8 7 14 -5 23
-3 27 20 30 32 4 68 47 58 71 -3 9 -17 17 -30 17 -23 0 -24 3 -18 39 5 33 3
41 -14 50 -11 6 -29 11 -40 11 -30 0 -46 24 -32 50 10 19 17 21 48 15 61 -10
68 -14 80 -40 18 -39 31 -29 17 13 -13 36 -13 37 13 42 43 9 136 3 140 -9 2
-6 -5 -11 -15 -11 -22 0 -108 -38 -101 -45 6 -6 126 31 151 48 12 8 55 17 95
21 l72 7 0 -30 c0 -20 8 -35 22 -45 29 -21 40 -20 72 5 20 16 24 24 16 39 -8
15 -5 19 15 22 19 4 25 1 25 -13 0 -27 18 -33 47 -14 15 11 49 18 84 19 55 2
59 0 59 -21 0 -13 4 -23 9 -23 5 0 11 -9 14 -20 7 -29 41 -25 92 10 33 23 51
29 70 24 19 -5 25 -2 25 10 0 23 27 20 64 -9 18 -14 37 -25 42 -25 5 0 19 -19
32 -42 20 -37 21 -43 7 -58 -26 -29 -19 -68 18 -90 43 -27 76 -25 117 5 19 14
42 25 52 25 10 0 18 5 18 10 0 6 -9 10 -19 10 -29 0 -35 17 -11 30 17 9 22 7
30 -15 6 -17 17 -25 33 -25 14 0 42 -17 67 -40 49 -45 48 -50 -5 -19 -20 12
-38 19 -41 16 -3 -3 3 -22 14 -44 11 -21 24 -55 30 -76 8 -30 8 -37 -4 -37 -8
0 -14 -7 -14 -16 0 -19 55 -85 84 -99 11 -5 24 -26 29 -45 5 -19 13 -39 19
-45 16 -16 -4 213 -22 259 -13 31 -13 -45 0 -78 6 -17 6 -26 0 -26 -14 0 -30
45 -30 85 0 24 7 39 22 49 32 23 36 20 40 -21 2 -20 8 -38 14 -40 6 -2 9 10 6
29 -2 19 3 42 11 53 14 19 16 19 34 3 17 -16 20 -16 41 1 28 21 20 51 -14 51
-34 0 -31 31 6 74 20 22 28 40 24 51 -6 15 -4 16 15 5 38 -20 35 -4 -6 34 -36
33 -37 36 -21 52 16 16 18 16 29 -10 11 -24 17 -27 48 -22 20 3 44 5 53 6 9 0
20 9 23 20 6 20 6 20 33 0 17 -14 34 -19 48 -16 13 4 26 2 29 -4 3 -5 1 -10
-4 -10 -18 0 -12 -29 8 -40 31 -16 36 -12 37 30 1 35 -5 48 -43 90 -41 46 -43
49 -24 59 11 7 22 7 25 2 3 -5 23 -11 43 -13 21 -3 46 -8 56 -12 12 -6 17 -4
17 9 0 9 5 13 10 10 6 -3 10 -14 10 -24 0 -29 33 -51 78 -51 38 0 42 3 42 24
0 31 45 51 92 40 49 -11 117 -10 122 1 2 7 29 8 82 2 44 -5 199 -10 346 -11
146 0 270 -4 274 -8 14 -15 34 -8 34 11 0 18 9 20 93 24 50 2 115 11 142 19
36 11 116 17 293 20 133 3 245 8 249 12 3 3 28 6 55 6 46 0 48 -1 38 -21 -16
-29 10 -66 53 -74 50 -10 107 17 107 49 0 13 -7 31 -15 40 -19 18 -16 19 120
42 55 9 102 19 105 21 8 8 -1533 -6 -1730 -16 -96 -4 -177 -6 -180 -4 -3 3 3
11 14 18 13 10 25 11 42 5 13 -5 24 -6 24 -2 0 6 103 6 210 1 8 -1 50 4 93 11
43 6 124 10 180 9 56 -2 179 0 272 5 94 4 213 9 265 11 52 2 110 8 127 14 27
8 35 7 43 -7 5 -9 10 -12 10 -7 0 6 40 11 93 13 50 1 147 11 215 22 67 11 126
20 130 20 4 0 1 4 -6 9 -8 4 48 11 130 14 143 6 228 22 235 44 2 6 -8 13 -24
15 l-28 4 28 12 c40 17 33 30 -25 46 -78 21 -143 29 -238 28 -83 -1 -245 14
-185 17 17 1 140 8 275 16 135 8 277 15 315 15 76 0 99 8 90 31 -9 25 -59 48
-135 64 -76 16 -122 34 -87 35 9 0 17 5 17 10 0 6 -9 10 -20 10 -22 0 -27 18
-7 26 7 2 35 5 62 7 47 2 50 4 48 27 l-1 25 80 -4 c115 -5 92 15 -26 24 -71 5
-93 10 -90 20 3 7 1 16 -5 20 -6 3 -15 -4 -20 -16 -8 -23 -8 -23 -13 4 -3 15
-1 27 3 27 5 0 9 10 8 23 0 19 -1 20 -8 4 -4 -10 -11 -18 -16 -18 -20 1 -45
-11 -45 -21 0 -6 9 -8 19 -5 11 3 22 0 24 -7 5 -13 -136 -16 -149 -3 -4 4 4 7
18 7 14 0 31 6 37 14 10 12 5 15 -29 20 -22 3 -58 9 -80 12 -22 3 -40 10 -40
14 0 20 34 40 66 40 33 0 46 -14 22 -23 -7 -2 -10 -8 -6 -12 4 -4 20 4 36 17
25 21 41 25 108 26 73 2 93 6 83 16 -2 3 -49 9 -104 15 -55 6 -129 17 -165 25
-36 8 -170 20 -298 25 -129 6 -238 14 -243 17 -6 3 -47 5 -92 5 -69 -1 -233
21 -244 33 -2 2 11 7 29 11 l33 8 -45 7 -45 6 47 8 c28 5 59 4 75 -2 17 -6 38
-6 53 0 42 16 3 28 -91 28 -112 0 -210 10 -203 21 3 5 -4 9 -15 9 -11 0 -23 5
-26 10 -3 6 3 10 15 10 13 0 18 4 14 11 -3 6 -16 8 -29 5 -29 -7 -41 5 -17 18
11 6 36 26 56 44 34 30 37 36 35 82 -2 29 3 56 9 62 7 7 12 23 12 36 0 21 4
23 25 18 13 -3 50 -3 81 0 57 7 57 7 35 25 -12 10 -46 26 -74 35 l-52 16 3 39
c2 22 -1 46 -7 53 -7 8 -42 17 -84 21 -195 17 -374 36 -389 41 -10 3 -18 9
-18 15 0 5 103 7 253 4 166 -2 225 -1 174 4 -91 10 -112 22 -68 40 22 10 34
10 51 1 21 -11 35 -7 35 10 0 4 11 17 25 29 l25 20 -27 1 c-15 0 -30 4 -33 10
-4 6 11 7 41 3 44 -6 46 -5 34 14 -14 21 -126 53 -186 53 -24 0 -34 6 -43 26
-8 19 -8 30 -1 39 15 18 -2 23 -133 36 -62 6 -123 15 -137 20 -32 11 166 4
435 -17 219 -17 260 -14 268 16 6 24 -10 26 -35 3 -17 -15 -21 -15 -66 10 -60
32 -137 52 -302 77 -72 11 -146 26 -163 33 l-31 13 44 1 c41 0 142 -7 294 -22
33 -3 57 -3 53 1 -12 12 -220 63 -287 71 -49 5 -59 8 -40 13 39 11 13 16 -190
39 -243 27 -328 34 -368 32 -18 0 -71 6 -119 14 -47 8 -87 15 -89 15 -2 0 -4
3 -4 8 0 9 154 -1 370 -27 337 -39 510 -46 526 -20 3 5 -2 9 -10 9 -9 0 -16 4
-16 9 0 15 -363 66 -618 87 l-83 7 49 33 c33 22 57 31 71 27 13 -3 21 -1 21 8
0 8 5 6 13 -6 15 -19 37 -13 37 11 0 9 -10 14 -27 14 -25 1 -26 2 -11 14 10 7
15 16 11 19 -11 12 -49 7 -69 -8 -28 -21 -61 -19 -67 5 -5 19 0 20 76 21 l82
2 -100 13 c-176 23 -593 64 -652 64 -55 0 -56 1 -35 16 12 8 22 26 22 38 0 21
6 24 58 30 49 6 107 25 77 26 -5 0 -3 5 5 10 11 7 3 10 -29 10 -33 0 -42 -3
-38 -14 7 -19 -49 -29 -108 -20 -70 10 -121 -36 -83 -74 9 -9 -1 -12 -48 -13
-58 -1 -58 -2 -16 -8 23 -4 47 -12 54 -19 7 -7 17 -8 28 -2 19 10 160 1 160
-10 0 -4 31 -5 68 -2 45 3 77 0 92 -8 15 -8 53 -12 98 -11 40 1 97 -1 127 -4
50 -7 53 -8 42 -27 -11 -17 -19 -19 -77 -14 -65 7 -334 26 -420 31 -25 1 -92
8 -149 15 -57 7 -122 10 -143 7 -23 -3 -54 1 -73 9 -25 10 -57 12 -125 7 -65
-4 -90 -3 -90 6 0 6 6 12 13 12 6 1 19 3 27 4 8 0 28 7 44 13 22 10 47 10 104
2 41 -5 77 -12 81 -15 5 -2 25 1 47 7 l39 12 -60 7 c-33 4 -89 7 -125 8 -85 2
-114 9 -100 26 8 10 0 15 -40 20 -27 4 -47 11 -44 16 3 5 -2 9 -10 9 -9 0 -16
-4 -16 -10 0 -5 -7 -10 -16 -10 -10 0 -14 6 -11 14 10 26 -20 39 -73 33 -32
-4 -50 -2 -50 5 0 7 -16 8 -45 4 -42 -7 -46 -5 -55 18 -5 14 -23 44 -40 67
-19 27 -30 54 -30 76 l0 34 -26 -20 c-30 -23 -69 -28 -78 -8 -5 9 -7 9 -12 0
-3 -7 -11 -10 -17 -7 -7 2 -35 -2 -62 -11 -62 -18 -70 -19 -56 -1 8 10 8 16
-3 25 -8 7 -17 22 -20 34 -5 22 -27 34 -98 57 -21 6 -42 19 -48 28 -8 15 -14
12 -45 -22 -29 -31 -41 -37 -65 -34 -17 3 -30 1 -30 -4 0 -4 -11 -8 -25 -8
-38 0 -89 -24 -112 -54 -22 -27 -60 -35 -80 -15 -19 19 -110 -37 -125 -77 -11
-32 -34 -44 -70 -36 -10 2 -18 10 -18 18 0 18 -17 18 -36 0 -19 -20 -18 -26 5
-26 29 0 32 -12 10 -39 -12 -15 -30 -24 -47 -24 -83 0 -174 8 -178 15 -3 5
-19 6 -35 3 -16 -4 -38 -4 -49 0 -20 7 -20 7 2 24 42 33 112 64 116 52 2 -6 8
-11 14 -11 7 0 6 5 -1 14 -10 12 -7 18 14 32 14 9 23 19 21 21 -5 5 -166 -89
-196 -114 -11 -8 -26 -10 -45 -4 -21 5 -37 3 -52 -7 -13 -8 -23 -10 -23 -4 0
16 -59 23 -80 10 -16 -11 -22 -9 -34 7 -14 19 -15 19 -22 2 -6 -17 -7 -17 -28
0 -18 16 -41 18 -183 18 -114 0 -164 3 -167 11 -5 13 -104 -1 -121 -17 -6 -6
-16 -1 -27 13 -14 19 -20 20 -27 9 -5 -7 -13 -11 -19 -7 -6 3 -13 -3 -17 -14
-4 -11 -11 -18 -16 -14 -5 3 -7 10 -3 15 3 5 1 16 -6 24 -8 10 -19 11 -46 3
-41 -11 -53 -5 -38 19 15 24 39 30 31 8 -6 -15 -3 -16 35 -8 24 4 158 7 298 6
165 -1 237 1 205 7 -27 4 -85 9 -127 9 -122 2 -122 2 -136 118 l-12 98 32 26
c18 15 28 31 24 37 -10 17 -58 15 -84 -4z m-454 -297 c2 -19 -3 -33 -15 -43
-14 -10 -15 -13 -3 -14 13 0 13 -1 0 -10 -10 -7 7 -10 58 -10 59 0 72 -3 72
-16 0 -13 5 -12 30 6 17 12 30 17 30 11 0 -6 5 -11 11 -11 6 0 9 7 6 14 -4 10
-1 13 7 10 8 -3 18 1 22 8 6 9 10 6 14 -12 5 -20 13 -26 40 -28 34 -3 69 -22
41 -22 -8 0 -7 -5 4 -17 18 -18 65 -25 65 -10 0 5 6 5 13 0 15 -13 68 -23 62
-13 -3 4 5 11 18 15 16 6 2 11 -55 18 -77 10 -100 22 -55 29 12 2 32 -2 43
-10 19 -11 22 -10 28 4 5 13 9 14 21 4 13 -10 19 -10 33 4 23 20 32 20 32 0 0
-13 7 -15 35 -10 24 5 35 3 35 -5 0 -8 14 -10 45 -7 25 3 45 2 45 -3 0 -5 -31
-9 -70 -9 -71 0 -77 -3 -61 -29 8 -12 12 -12 25 -2 11 9 20 10 35 2 11 -6 56
-11 100 -11 44 0 128 -9 187 -21 83 -16 113 -18 132 -9 16 7 59 8 126 4 91 -6
103 -9 112 -28 6 -14 17 -20 32 -19 12 2 22 -3 22 -10 0 -9 -35 -11 -152 -8
-205 5 -298 9 -394 17 -52 4 -88 2 -102 -5 -15 -8 -21 -8 -25 2 -2 8 -33 13
-90 15 -50 3 -87 8 -87 14 0 7 -5 6 -14 -1 -8 -7 -31 -9 -59 -5 -30 4 -52 2
-61 -5 -10 -8 -15 -9 -18 -1 -4 14 -88 24 -88 11 0 -5 4 -12 10 -16 5 -3 7
-12 3 -20 -3 -10 2 -15 16 -15 12 0 30 -5 40 -11 13 -9 26 -9 49 -1 24 8 33 8
43 -4 17 -21 36 -17 43 9 7 21 8 21 15 3 9 -24 2 -68 -10 -61 -4 3 -13 -3 -19
-14 -5 -11 -19 -19 -29 -18 -11 0 -18 4 -16 7 2 3 -4 14 -12 25 -9 11 -17 15
-19 9 -6 -15 -64 -4 -64 12 0 8 -4 14 -10 14 -5 0 -10 -7 -10 -15 0 -8 -2 -15
-4 -15 -2 0 -11 -3 -20 -6 -10 -4 -20 5 -31 26 -17 33 -11 58 6 27 17 -29 28
-19 18 15 -5 18 -9 50 -9 70 0 20 -5 40 -12 44 -8 5 -9 2 -5 -10 6 -14 3 -15
-13 -6 -25 13 -25 17 1 30 14 8 24 8 33 1 9 -8 18 -7 31 3 17 12 13 14 -42 21
-38 4 -68 3 -80 -4 -10 -6 -12 -11 -5 -11 6 0 12 -4 12 -10 0 -5 -18 -10 -40
-10 -42 0 -52 12 -22 26 12 6 3 10 -33 13 -49 6 -98 -6 -89 -21 3 -5 -1 -8 -8
-8 -15 0 -44 67 -34 77 3 4 6 1 6 -5 0 -20 19 -13 36 12 12 19 13 29 5 43 -9
16 -10 16 -11 -5 0 -31 -22 -23 -31 11 -9 33 -3 39 41 35 30 -3 35 -7 38 -31z
m106 12 c-8 -13 20 -11 34 3 16 16 28 2 12 -17 -8 -10 -21 -13 -38 -8 -22 5
-24 3 -20 -18 4 -22 1 -24 -31 -24 -32 0 -36 3 -39 28 -2 18 3 33 13 41 19 13
78 9 69 -5z m-270 -5 c4 -9 4 -19 2 -21 -8 -8 -26 8 -26 23 0 19 16 18 24 -2z
m1990 -49 c11 -8 29 -16 40 -16 18 -1 19 -2 3 -6 -18 -5 -18 -5 0 -18 15 -11
19 -10 30 5 15 21 58 31 73 16 5 -5 28 -9 50 -7 42 3 47 -3 26 -31 -18 -25
-62 -23 -69 2 -6 25 -37 26 -37 1 0 -16 -11 -19 -87 -24 -47 -3 -90 -4 -94 -2
-13 8 2 44 16 39 20 -8 41 36 24 47 -8 5 -9 9 -4 9 6 -1 19 -7 29 -15z m-1674
-5 c-19 -13 -30 -13 -30 0 0 6 10 10 23 10 18 0 19 -2 7 -10z m-320 -30 c0 -5
-12 -10 -27 -9 l-28 1 25 8 c14 4 26 8 28 9 1 1 2 -3 2 -9z m-505 -21 c4 -6
19 -7 35 -4 16 4 37 2 48 -4 13 -7 22 -7 31 2 10 9 12 9 9 -2 -2 -11 8 -14 45
-12 28 2 47 -2 47 -8 0 -12 -53 -14 -151 -5 -49 5 -69 11 -77 25 -7 11 -8 19
-3 19 6 0 13 -5 16 -11z m3312 -29 c-10 -25 -17 -30 -45 -30 -20 0 -31 -4 -27
-10 3 -5 -1 -10 -9 -10 -42 0 18 52 91 79 1 1 -4 -12 -10 -29z m-2978 4 c2 -2
-9 -4 -25 -4 -16 0 -40 -3 -54 -6 -24 -6 -24 -6 -5 9 17 13 69 14 84 1z m76 6
c3 -5 2 -10 -4 -10 -5 0 -13 5 -16 10 -3 6 -2 10 4 10 5 0 13 -4 16 -10z m310
-10 c4 -6 -7 -10 -27 -10 -25 0 -29 3 -18 10 19 13 37 13 45 0z m1975 -30 c0
-5 -12 -10 -26 -10 -14 0 -23 4 -19 10 3 6 15 10 26 10 10 0 19 -4 19 -10z
m-2787 -7 c-29 -2 -78 -2 -110 0 -32 2 -8 3 52 3 61 0 87 -1 58 -3z m847 -3
c-17 -11 -159 -13 -177 -2 -7 4 34 9 90 10 71 2 97 -1 87 -8z m2640 -24 c0 -3
-4 -8 -10 -11 -5 -3 -10 -1 -10 4 0 6 5 11 10 11 6 0 10 -2 10 -4z m-2726 -14
c3 -5 -1 -9 -9 -9 -8 0 -12 4 -9 9 3 4 7 8 9 8 2 0 6 -4 9 -8z m2666 -2 c-8
-5 -31 -9 -50 -9 l-35 1 30 8 c17 4 39 8 50 9 16 1 17 -1 5 -9z m-876 -34 c-3
-9 -12 -12 -22 -9 -15 6 -9 11 25 22 1 1 0 -5 -3 -13z m-2611 -13 l108 -6 -33
-20 c-20 -12 -34 -15 -36 -8 -2 6 -19 8 -46 5 -27 -4 -46 -2 -50 5 -5 8 -12 7
-22 -4 -9 -8 -25 -15 -37 -15 -18 0 -22 6 -22 30 0 23 4 29 15 24 8 -3 64 -8
123 -11z m427 -18 c0 -19 14 -19 30 0 15 18 31 10 23 -10 -3 -9 -19 -15 -39
-15 -32 0 -34 -2 -24 -20 6 -11 15 -18 19 -15 5 3 11 -2 15 -10 3 -8 15 -15
26 -15 13 0 20 -7 20 -20 0 -27 -16 -25 -36 5 -12 18 -20 22 -33 16 -18 -10
-89 14 -77 26 3 4 12 1 18 -5 19 -19 25 -14 26 18 1 28 -2 30 -33 30 -50 0
-52 18 -3 23 24 2 49 4 56 5 6 1 12 -5 12 -13z m958 -32 c-19 -23 -2 -24 23
-2 14 12 33 19 46 16 13 -2 23 0 23 4 0 5 12 9 26 9 19 0 25 -4 21 -14 -8 -19
31 -32 46 -17 9 9 8 14 -3 21 -13 9 -13 10 0 10 8 -1 24 -7 34 -15 22 -17 61
-20 51 -5 -8 12 -5 12 31 1 16 -6 55 -12 88 -15 37 -3 62 -11 70 -21 9 -13 17
-14 41 -5 15 6 42 8 58 4 20 -4 27 -3 23 5 -10 16 7 14 30 -4 21 -16 48 -20
40 -6 -4 5 5 4 19 -2 30 -14 31 -23 6 -36 -23 -13 -35 -3 -20 16 10 11 5 11
-27 0 -22 -8 -50 -11 -64 -7 -14 4 -45 4 -70 0 -39 -6 -42 -8 -24 -16 18 -7
20 -11 8 -21 -10 -10 -16 -9 -27 7 -13 19 -16 19 -58 5 -30 -11 -51 -13 -69
-6 -15 5 -38 7 -53 6 -17 -2 -27 2 -27 9 0 9 -15 13 -45 12 -25 -1 -45 -4 -45
-8 0 -5 -9 -8 -20 -8 -11 0 -20 5 -20 10 0 6 -7 10 -15 10 -8 0 -15 7 -15 15
0 8 -6 15 -14 15 -25 0 -46 -12 -46 -26 0 -17 12 -18 28 -2 9 9 12 9 12 0 0
-19 -48 -26 -65 -9 -8 9 -15 21 -15 28 0 8 -4 8 -15 -1 -13 -11 -14 -10 -9 4
8 20 -25 22 -45 4 -11 -11 -13 -10 -7 5 3 10 6 23 6 29 0 6 7 7 15 4 9 -3 18
1 22 9 4 12 9 13 19 4 11 -9 15 -7 20 6 5 13 9 14 15 4 4 -7 3 -19 -3 -26z
m2271 25 c77 2 98 -1 113 -15 16 -15 25 -15 64 -5 24 7 85 12 136 12 93 0 117
-9 35 -14 -24 -1 -61 -12 -82 -24 -31 -19 -51 -22 -118 -21 -45 1 -91 5 -102
9 -19 7 -19 7 3 14 12 4 22 12 22 18 0 5 -16 1 -36 -11 -42 -25 -87 -27 -105
-4 -8 9 -27 25 -44 35 -27 18 -27 19 -5 12 14 -4 67 -7 119 -6z m746 -34 c66
-8 174 -19 240 -24 66 -5 137 -12 159 -16 l38 -6 -52 -27 c-48 -24 -59 -26
-114 -19 -33 4 -109 8 -168 9 -93 2 -108 4 -113 20 -12 38 -114 43 -142 6 -15
-18 -23 -57 -12 -57 5 0 9 -11 9 -24 0 -19 -4 -23 -20 -19 -16 4 -18 11 -13
45 l5 41 -45 -5 c-40 -5 -44 -3 -39 14 4 17 1 19 -34 13 -22 -4 -47 -9 -57
-12 -15 -4 -16 -1 -6 21 11 23 16 25 49 20 30 -5 42 -2 56 14 24 26 95 28 259
6z m-4260 -14 c3 -5 -1 -10 -9 -10 -8 0 -18 5 -21 10 -3 6 1 10 9 10 8 0 18
-4 21 -10z m142 -6 c-3 -3 -12 -4 -19 -1 -8 3 -5 6 6 6 11 1 17 -2 13 -5z
m-327 -24 c0 -5 -5 -10 -11 -10 -5 0 -7 5 -4 10 3 6 8 10 11 10 2 0 4 -4 4
-10z m2245 -11 c-49 -11 -65 -10 -59 4 3 8 18 11 47 8 41 -5 41 -5 12 -12z
m-2120 1 c4 -6 -5 -10 -19 -10 -14 0 -26 5 -26 10 0 6 9 10 19 10 11 0 23 -4
26 -10z m105 -6 c0 -11 -5 -14 -16 -10 -9 3 -23 6 -32 7 -14 0 -13 2 3 9 31
13 45 11 45 -6z m984 0 c3 -8 2 -12 -4 -9 -6 3 -10 10 -10 16 0 14 7 11 14 -7z
m-834 -14 c0 -5 -2 -10 -4 -10 -3 0 -8 5 -11 10 -3 6 -1 10 4 10 6 0 11 -4 11
-10z m1123 -32 c-4 -20 -11 -28 -27 -28 -24 0 -46 17 -46 37 0 10 5 10 27 0
22 -10 28 -9 37 5 13 22 15 19 9 -14z m567 22 c8 -5 11 -12 7 -17 -5 -4 -12
-1 -16 6 -5 7 -13 11 -19 7 -6 -3 -13 -2 -17 4 -8 13 25 13 45 0z m-505 -10
c-3 -5 -14 -10 -23 -10 -15 0 -15 2 -2 10 20 13 33 13 25 0z m295 6 c0 -3 -4
-8 -10 -11 -5 -3 -10 -1 -10 4 0 6 5 11 10 11 6 0 10 -2 10 -4z m-259 -45
c-12 -12 -31 -21 -42 -21 -20 0 -19 3 10 31 22 21 36 28 43 21 7 -7 3 -17 -11
-31z m-274 14 c0 -11 -11 -15 -39 -15 -21 0 -38 5 -38 11 0 7 9 9 23 6 12 -4
29 -2 37 3 8 5 15 10 16 10 0 0 1 -7 1 -15z m372 -15 c15 0 32 5 39 12 9 9 12
6 12 -16 0 -23 -3 -27 -17 -20 -10 4 -35 8 -55 8 -39 0 -48 12 -25 35 10 10
13 9 15 -3 2 -10 14 -16 31 -16z m341 9 c0 -6 -4 -7 -10 -4 -5 3 -10 11 -10
16 0 6 5 7 10 4 6 -3 10 -11 10 -16z m-200 -19 c0 -5 -7 -7 -15 -4 -8 4 -15 8
-15 10 0 2 7 4 15 4 8 0 15 -4 15 -10z m2280 1 c0 -4 -11 -6 -25 -3 -14 2 -25
6 -25 8 0 2 11 4 25 4 14 0 25 -4 25 -9z m336 -1 c5 -5 34 -14 64 -19 l55 -9
-72 -1 c-67 -1 -73 1 -73 19 0 22 10 26 26 10z m-4411 -40 c7 -12 -22 -12 -50
0 -17 7 -15 9 12 9 17 1 35 -3 38 -9z m5253 -147 c-10 -2 -26 -2 -35 0 -10 3
-2 5 17 5 19 0 27 -2 18 -5z m-43 -143 c16 -7 12 -9 -18 -9 -23 -1 -36 3 -32
9 7 12 23 12 50 0z m-5667 -121 c-18 -12 -22 5 -6 33 l13 23 3 -24 c2 -13 -2
-27 -10 -32z m82 21 c0 -5 -5 -10 -11 -10 -5 0 -7 5 -4 10 3 6 8 10 11 10 2 0
4 -4 4 -10z m659 1 c14 -4 26 -12 28 -18 3 -8 -14 -7 -54 4 -32 8 -60 17 -62
19 -7 6 61 3 88 -5z m-446 -74 c2 -20 0 -34 -5 -31 -4 3 -8 21 -8 41 0 45 10
38 13 -10z m-360 8 c-3 -9 -8 -14 -10 -11 -3 3 -2 9 2 15 9 16 15 13 8 -4z
m87 -27 c0 -5 -6 -8 -14 -8 -9 0 -12 7 -9 21 4 16 8 17 14 7 5 -7 9 -16 9 -20z
m484 -23 c-4 -8 -10 -12 -15 -9 -11 6 -2 24 11 24 5 0 7 -7 4 -15z m403 -471
c-3 -3 -12 -4 -19 -1 -8 3 -5 6 6 6 11 1 17 -2 13 -5z m-497 -104 c0 -11 -2
-20 -4 -20 -20 0 -439 -44 -533 -56 -211 -27 -168 -10 62 25 121 18 274 41
340 51 66 10 123 18 128 19 4 0 7 -8 7 -19z m5400 -15 l45 -24 -62 -1 c-53 0
-63 3 -64 18 0 10 -3 12 -6 5 -3 -8 -25 -13 -59 -13 -43 0 -56 -4 -62 -17 -6
-15 -15 -17 -57 -12 l-50 6 41 1 c32 2 43 7 47 21 4 16 17 20 73 26 38 3 74 8
79 10 20 7 31 4 75 -20z m255 -25 c9 -15 -21 -23 -53 -14 l-27 7 30 7 c44 11
43 11 50 0z m-60 -33 c25 -2 13 -4 -32 -5 -40 -1 -73 2 -73 7 0 11 53 19 60 9
3 -3 23 -8 45 -11z m-140 3 c7 -12 -88 -12 -125 0 -18 6 -4 8 47 9 39 1 75 -3
78 -9z m-5459 -31 c3 -5 2 -9 -3 -10 -4 0 -50 -2 -101 -4 -76 -3 -91 -1 -82
10 13 15 176 19 186 4z m5828 -40 c35 -9 43 -14 39 -29 -4 -15 -9 -17 -30 -9
-13 5 -61 9 -106 10 -45 0 -91 4 -102 8 -32 13 44 23 106 15 38 -5 50 -4 45 5
-9 14 -6 14 48 0z m-7179 -19 c-11 -5 -29 -8 -40 -8 -16 0 -15 2 5 8 34 11 60
11 35 0z m920 -40 c25 -11 19 -12 -75 -15 -54 -2 -86 -8 -115 -24 -48 -26 -74
-29 -55 -6 7 8 24 15 38 15 14 0 22 3 18 8 -4 4 21 12 56 18 78 14 107 15 133
4z m480 -71 c-16 -5 -39 -7 -49 -5 -11 3 -28 0 -38 -5 -19 -10 -284 -59 -320
-59 -35 0 -17 15 44 37 47 16 66 19 84 11 17 -8 33 -7 62 5 24 10 54 14 75 10
20 -3 37 -1 41 6 4 6 34 11 69 10 54 -1 58 -2 32 -10z m4350 -19 c3 -5 -3 -10
-14 -10 -12 0 -21 5 -21 10 0 6 6 10 14 10 8 0 18 -4 21 -10z m-5797 -45 c-3
-3 -13 -2 -22 1 -14 5 -15 9 -4 15 13 8 36 -6 26 -16z m-298 11 c0 -2 -7 -6
-15 -10 -8 -3 -15 -1 -15 4 0 6 7 10 15 10 8 0 15 -2 15 -4z m250 -16 c0 -11
-76 -33 -93 -27 -14 5 50 36 76 37 9 0 17 -4 17 -10z m7893 3 c-13 -2 -35 -2
-50 0 -16 2 -5 4 22 4 28 0 40 -2 28 -4z m137 -3 c0 -5 -15 -10 -32 -9 -31 1
-32 1 -8 9 35 11 40 11 40 0z m116 -6 c-18 -18 -77 -16 -84 4 -2 8 11 12 48
12 47 0 50 -1 36 -16z m-2425 -24 c18 -16 52 -38 76 -47 46 -19 51 -27 29 -49
-13 -12 -16 -12 -25 3 -8 15 -23 18 -78 17 -37 0 -60 1 -50 4 27 6 20 32 -14
46 -33 14 -36 19 -17 41 20 22 44 18 79 -15z m223 24 c27 -10 18 -21 -14 -16
-23 3 -30 0 -30 -12 0 -16 -21 -22 -34 -9 -8 8 33 42 51 43 6 0 18 -3 27 -6z
m-6457 -20 c-3 -3 -12 -4 -19 -1 -8 3 -5 6 6 6 11 1 17 -2 13 -5z m1323 -13
c0 -4 -33 -13 -72 -20 -40 -7 -84 -14 -98 -17 -23 -5 -23 -4 -6 7 40 25 176
49 176 30z m5135 -1 c3 -5 -1 -10 -10 -10 -9 0 -13 5 -10 10 3 6 8 10 10 10 2
0 7 -4 10 -10z m1578 -70 c3 -11 1 -20 -4 -20 -5 0 -9 9 -9 20 0 11 2 20 4 20
2 0 6 -9 9 -20z m-1878 -10 c3 -5 2 -10 -4 -10 -5 0 -13 5 -16 10 -3 6 -2 10
4 10 5 0 13 -4 16 -10z m-6272 -11 c-14 -14 -102 -25 -88 -11 6 6 26 12 45 15
19 2 39 5 45 5 5 1 4 -3 -2 -9z m9025 1 c35 1 52 -3 47 -9 -7 -12 -101 -14
-194 -5 -41 5 -58 10 -49 16 7 5 42 6 78 3 36 -3 89 -6 118 -5z m-2751 -52
c-3 -7 -5 -2 -5 12 0 14 2 19 5 13 2 -7 2 -19 0 -25z m-4212 -246 c-11 -9
-128 -32 -164 -32 -29 0 -26 14 7 27 32 13 170 17 157 5z m4312 -118 c-3 -3
-12 -4 -19 -1 -8 3 -5 6 6 6 11 1 17 -2 13 -5z m-52 -34 c-3 -5 -10 -10 -16
-10 -5 0 -9 5 -9 10 0 6 7 10 16 10 8 0 12 -4 9 -10z m296 -5 c10 -3 23 -5 30
-4 23 4 49 -12 49 -31 0 -17 36 -57 45 -49 2 3 -2 18 -11 33 -8 16 -12 31 -10
33 8 8 86 -8 86 -18 0 -5 7 -9 16 -9 9 0 24 -8 33 -18 9 -9 30 -24 46 -32 l30
-15 -60 -5 c-33 -3 -64 -2 -69 2 -13 11 -60 10 -71 -1 -29 -25 -245 -45 -230
-21 3 6 -3 10 -14 10 -12 0 -21 -3 -21 -7 0 -5 -14 -8 -30 -9 -17 -1 -30 3
-30 7 0 5 -13 6 -29 3 -23 -5 -29 -2 -33 14 -4 13 0 23 9 26 8 3 11 11 7 17
-4 8 -9 7 -15 -2 -7 -11 -9 -10 -9 4 0 18 17 22 39 8 8 -6 27 -3 49 6 l35 15
-16 -26 c-25 -38 -20 -53 8 -26 20 18 24 30 20 51 -4 19 -1 28 11 33 14 5 15
4 4 -9 -10 -13 -9 -15 8 -15 24 0 42 22 23 28 -11 4 -11 6 -1 12 14 9 76 6
101 -5z m-5831 -24 c0 -5 -9 -7 -20 -4 -11 3 -20 7 -20 9 0 2 9 4 20 4 11 0
20 -4 20 -9z m160 -67 c-52 -13 -192 -29 -160 -18 28 9 165 32 190 32 14 0 0
-6 -30 -14z m5366 -10 c8 -31 -6 -43 -42 -36 -27 5 -29 13 -12 42 18 28 46 25
54 -6z m-218 -14 c-1 -20 -6 -30 -16 -30 -9 0 -12 3 -9 7 4 3 2 12 -4 19 -13
15 -4 34 16 34 9 0 13 -11 13 -30z m-5499 -14 c-2 -2 -26 -6 -54 -9 -34 -4
-42 -3 -25 3 25 8 87 13 79 6z m2986 -61 c0 -28 19 -28 49 0 16 14 30 24 32
22 2 -1 -1 -21 -7 -43 -17 -60 -39 -68 -81 -29 -35 32 -39 31 -31 -5 5 -27 3
-30 -18 -30 -13 0 -41 -3 -63 -7 -53 -8 -46 6 34 67 67 51 85 56 85 25z m3085
5 c0 -5 -7 -7 -15 -4 -8 4 -12 10 -9 15 6 11 24 2 24 -11z m-490 -51 c0 -19
-1 -19 -32 -3 -30 15 -31 18 -13 24 27 10 45 2 45 -21z m84 -1 c-17 -4 -33 -3
-41 4 -24 20 -13 25 28 14 40 -10 40 -11 13 -18z m78 -14 c-11 -8 -19 -8 -27
0 -10 8 -9 13 3 22 11 8 19 8 27 0 10 -8 9 -13 -3 -22z m-2172 -23 c0 -16 -9
-36 -21 -47 -21 -19 -21 -19 -8 9 14 32 6 45 -17 26 -26 -21 -66 -112 -53
-120 6 -4 8 -12 4 -19 -4 -7 8 -27 30 -50 l38 -39 -27 -31 c-14 -17 -26 -42
-26 -56 0 -25 -15 -33 -23 -11 -3 9 -10 7 -23 -6 -16 -15 -17 -20 -6 -38 13
-21 13 -21 -9 -5 -13 9 -31 16 -41 16 -9 0 -20 5 -24 12 -4 6 -3 8 4 4 6 -3
13 -2 17 4 3 5 -1 10 -9 10 -9 0 -16 7 -16 16 0 8 -4 12 -10 9 -5 -3 -10 -17
-10 -31 0 -21 -5 -24 -34 -24 -19 0 -37 4 -40 9 -3 5 -24 7 -46 4 -47 -7 -53
8 -19 51 l21 27 19 -23 c10 -13 24 -29 30 -36 9 -11 16 -1 31 45 17 48 18 63
9 88 -11 27 -9 32 19 57 17 16 36 25 45 22 8 -4 15 -1 15 5 0 6 -4 11 -10 11
-5 0 -10 7 -10 15 0 26 -30 16 -48 -15 -17 -31 -35 -35 -40 -9 -3 15 105 75
116 65 10 -10 43 16 38 30 -4 11 4 14 35 14 26 0 41 5 44 15 3 8 7 22 10 30 8
27 45 -1 45 -34z m890 19 c0 -5 -2 -10 -4 -10 -3 0 -8 5 -11 10 -3 6 -1 10 4
10 6 0 11 -4 11 -10z m90 6 c0 -2 -9 -6 -20 -9 -11 -3 -20 -1 -20 4 0 5 9 9
20 9 11 0 20 -2 20 -4z m310 -5 c0 -16 -42 -41 -68 -41 -38 0 -24 34 18 41 19
4 38 7 43 8 4 0 7 -3 7 -8z m-100 -39 c0 -9 -5 -24 -10 -32 -8 -13 -10 -13
-10 2 0 9 -7 21 -17 26 -10 6 -14 16 -10 26 5 14 11 15 27 6 11 -6 20 -18 20
-28z m-2350 -27 c0 -22 -4 -25 -37 -25 l-38 1 28 24 c36 32 47 31 47 0z m-351
-59 c-2 -2 -24 -6 -49 -10 -31 -4 -40 -3 -30 4 13 9 89 15 79 6z m-2154 -32
c-15 -16 -18 -16 -33 0 -15 15 -14 16 17 16 30 0 31 -1 16 -16z m5290 -4 c3
-5 -1 -10 -10 -10 -9 0 -13 5 -10 10 3 6 8 10 10 10 2 0 7 -4 10 -10z m-3821
-110 c-8 -19 -11 -20 -29 -5 -20 15 -20 15 -1 30 25 19 43 4 30 -25z m1916 15
c13 -16 6 -35 -15 -35 -9 0 -12 -6 -9 -15 4 -8 3 -15 0 -15 -12 0 -56 53 -56
66 0 19 64 18 80 -1z m-2172 -33 c-2 -10 -15 -18 -33 -20 -17 -2 -36 -8 -42
-14 -9 -7 -13 -7 -13 1 0 6 -9 11 -21 11 -15 0 -19 -5 -15 -15 7 -19 -14 -19
-78 0 -61 19 -54 19 -94 -5 l-34 -21 46 -40 c25 -23 46 -48 46 -58 0 -24 -20
-41 -47 -41 -31 0 -113 23 -113 31 0 4 -17 5 -37 2 -47 -6 -149 12 -179 32
-20 13 -21 18 -11 44 14 38 45 51 131 53 51 1 74 6 87 19 26 26 94 42 118 29
19 -9 95 -3 216 19 46 9 78 -3 73 -27z m-915 -49 c-7 -2 -19 -2 -25 0 -7 3 -2
5 12 5 14 0 19 -2 13 -5z m5177 -97 c0 -3 -4 -8 -10 -11 -5 -3 -10 -1 -10 4 0
6 5 11 10 11 6 0 10 -2 10 -4z"/>
<path d="M5545 5090 c-3 -5 -1 -10 4 -10 6 0 11 5 11 10 0 6 -2 10 -4 10 -3 0
-8 -4 -11 -10z"/>
<path d="M7355 4830 c-3 -5 1 -10 9 -10 9 0 16 5 16 10 0 6 -4 10 -9 10 -6 0
-13 -4 -16 -10z"/>
<path d="M7404 4829 c-3 -6 -2 -15 4 -21 11 -11 52 6 52 22 0 14 -47 13 -56
-1z"/>
<path d="M7104 3194 c3 -9 6 -18 6 -20 0 -2 7 -4 15 -4 13 0 14 4 5 20 -13 24
-35 27 -26 4z"/>
<path d="M7545 2640 c3 -5 8 -10 11 -10 2 0 4 5 4 10 0 6 -5 10 -11 10 -5 0
-7 -4 -4 -10z"/>
<path d="M7147 2593 c-4 -3 -7 -11 -7 -17 0 -6 5 -5 12 2 6 6 9 14 7 17 -3 3
-9 2 -12 -2z"/>
<path d="M4810 2320 c0 -5 5 -10 10 -10 6 0 10 5 10 10 0 6 -4 10 -10 10 -5 0
-10 -4 -10 -10z"/>
<path d="M4766 2275 c-3 -8 -12 -15 -21 -15 -8 0 -15 -4 -15 -9 0 -5 -3 -17
-6 -25 -5 -14 -2 -15 19 -7 14 6 27 7 30 3 2 -4 2 -2 1 5 -2 7 1 15 6 18 13 8
13 45 1 45 -5 0 -11 -7 -15 -15z"/>
<path d="M5990 5480 c0 -11 7 -20 15 -20 8 0 15 9 15 20 0 11 -7 20 -15 20 -8
0 -15 -9 -15 -20z"/>
<path d="M6729 5442 c-41 -31 -102 -78 -134 -104 -33 -26 -71 -56 -84 -66 -13
-10 -22 -25 -19 -33 4 -10 17 -2 48 29 24 24 56 50 72 58 15 8 32 23 37 33 6
10 30 30 53 45 54 32 115 83 108 89 -3 3 -39 -20 -81 -51z"/>
<path d="M4383 5483 c-7 -2 -13 -11 -13 -18 0 -11 6 -11 30 1 17 9 30 17 30
20 0 5 -32 4 -47 -3z"/>
<path d="M4792 5454 c2 -28 9 -39 26 -45 17 -7 24 -5 29 8 8 21 -18 67 -40 71
-15 3 -18 -2 -15 -34z"/>
<path d="M5655 5481 c-9 -16 3 -31 26 -31 14 0 19 6 17 17 -4 20 -33 29 -43
14z"/>
<path d="M5260 5471 c0 -5 -11 -22 -25 -37 -46 -50 -18 -150 33 -118 34 21 44
59 30 111 -12 41 -38 72 -38 44z"/>
<path d="M6250 5465 c-7 -8 -8 -15 -2 -15 5 0 15 7 22 15 7 8 8 15 2 15 -5 0
-15 -7 -22 -15z"/>
<path d="M3808 5431 c9 -16 18 -28 20 -27 6 7 -18 56 -27 56 -6 0 -2 -13 7
-29z"/>
<path d="M6875 5449 c-4 -6 -4 -13 -1 -16 8 -8 36 5 36 17 0 13 -27 13 -35 -1z"/>
<path d="M2080 5437 c0 -9 -7 -17 -15 -17 -8 0 -15 -4 -15 -10 0 -15 26 -12
40 5 10 12 10 19 2 27 -9 9 -12 8 -12 -5z"/>
<path d="M5620 5390 c0 -20 5 -30 15 -30 10 0 15 10 15 30 0 20 -5 30 -15 30
-10 0 -15 -10 -15 -30z"/>
<path d="M6107 5403 c-11 -10 -8 -43 3 -43 6 0 10 11 10 25 0 26 -2 29 -13 18z"/>
<path d="M2618 5362 c-3 -9 -2 -26 2 -36 6 -18 7 -18 13 -2 10 25 9 56 -2 56
-5 0 -11 -8 -13 -18z"/>
<path d="M5660 5370 c0 -5 5 -10 10 -10 6 0 10 5 10 10 0 6 -4 10 -10 10 -5 0
-10 -4 -10 -10z"/>
<path d="M2980 5357 c-36 -18 -40 -64 -6 -77 37 -14 100 8 104 36 5 37 -55 62
-98 41z"/>
<path d="M2767 5343 c-11 -10 -8 -53 3 -53 6 0 10 6 10 14 0 8 3 21 6 30 6 16
-7 22 -19 9z"/>
<path d="M6672 5318 c-8 -8 -9 -15 -1 -25 21 -25 69 -9 69 24 0 16 -52 17 -68
1z"/>
<path d="M2005 5285 c-16 -8 -61 -19 -98 -25 -85 -15 -118 -41 -120 -92 -2
-68 50 -98 167 -98 l76 0 20 40 c20 40 26 44 66 41 30 -3 74 36 74 65 0 15
-12 38 -29 55 -25 24 -37 29 -78 28 -26 0 -61 -7 -78 -14z"/>
<path d="M4652 5284 c-12 -8 -22 -21 -22 -28 0 -38 91 -65 104 -30 9 25 7 33
-14 54 -24 24 -38 25 -68 4z"/>
<path d="M5156 5262 c-7 -12 3 -42 14 -42 18 0 22 22 7 37 -9 9 -17 11 -21 5z"/>
<path d="M2860 5250 c-11 -7 -4 -10 27 -10 23 0 45 5 48 10 8 13 -55 13 -75 0z"/>
<path d="M4540 5190 c0 -5 19 -10 43 -9 32 0 37 2 22 9 -28 12 -65 12 -65 0z"/>
<path d="M6420 5190 c-13 -8 -12 -10 3 -10 9 0 17 5 17 10 0 12 -1 12 -20 0z"/>
<path d="M6521 5189 c-19 -7 -22 -12 -13 -21 9 -9 17 -7 34 10 24 23 18 27
-21 11z"/>
<path d="M6610 5164 c0 -9 5 -14 12 -12 18 6 21 28 4 28 -9 0 -16 -7 -16 -16z"/>
<path d="M5095 5160 c28 -12 65 -12 65 0 0 6 -19 10 -42 9 -33 0 -38 -2 -23
-9z"/>
<path d="M7350 5102 c-14 -2 -29 -8 -35 -14 -7 -7 1 -8 25 -3 51 11 60 24 10
17z"/>
<path d="M7003 5089 c-18 -5 -35 -13 -38 -18 -6 -11 66 7 80 20 11 11 1 11
-42 -2z"/>
<path d="M1628 5058 c9 -9 15 -9 24 0 9 9 7 12 -12 12 -19 0 -21 -3 -12 -12z"/>
<path d="M6677 5059 c-28 -16 -2 -39 44 -39 38 0 59 14 42 31 -15 15 -67 20
-86 8z"/>
<path d="M7260 5029 c25 -4 65 -7 90 -7 l45 0 -40 9 c-22 4 -62 8 -90 7 l-50
-1 45 -8z"/>
<path d="M2002 5018 c-17 -17 4 -38 39 -38 35 0 48 19 24 37 -23 16 -47 17
-63 1z"/>
<path d="M7540 5005 c82 -18 139 -20 123 -4 -6 6 -51 13 -100 15 l-88 3 65
-14z"/>
<path d="M2510 5001 c0 -11 36 -21 75 -20 l30 1 -30 13 c-34 16 -75 19 -75 6z"/>
<path d="M8416 4971 c5 -5 23 -12 39 -16 29 -6 29 -6 11 9 -21 17 -67 23 -50
7z"/>
<path d="M2575 4953 c4 -10 13 -43 21 -73 18 -66 24 -74 24 -29 0 34 -33 119
-46 119 -3 0 -3 -8 1 -17z"/>
<path d="M1543 4912 c-13 -2 -23 -8 -23 -13 0 -5 -16 -9 -35 -9 -19 0 -35 -4
-35 -8 0 -10 45 -32 65 -32 8 0 15 -7 15 -15 0 -20 53 -20 70 0 10 13 14 12
30 -7 15 -19 21 -21 42 -11 20 9 26 8 34 -4 8 -13 14 -14 32 -4 19 10 22 9 22
-5 0 -14 10 -16 65 -12 36 2 65 0 65 -4 0 -4 5 -8 10 -8 6 0 10 7 10 15 0 8 4
15 9 15 5 0 7 -9 4 -21 -5 -19 -4 -20 15 -8 11 7 18 19 15 26 -3 8 3 23 12 33
28 31 12 33 -29 5 -21 -14 -35 -21 -31 -15 13 20 -24 42 -65 38 -26 -2 -41 1
-44 9 -9 22 -26 14 -39 -16 -9 -21 -17 -27 -26 -21 -8 4 -11 15 -8 24 4 9 2
16 -3 16 -6 0 -10 6 -10 13 0 10 -13 13 -54 9 -29 -2 -62 0 -72 5 -10 5 -29 7
-41 5z"/>
<path d="M7945 4890 c28 -12 78 -12 70 0 -3 6 -25 10 -48 9 -33 0 -38 -2 -22
-9z"/>
<path d="M2412 4878 c7 -20 58 -23 58 -4 0 11 -10 16 -31 16 -20 0 -29 -4 -27
-12z"/>
<path d="M2070 4860 c0 -5 -13 -10 -29 -10 -31 0 -54 -21 -32 -28 8 -3 7 -8
-5 -16 -25 -18 -11 -64 21 -72 62 -15 105 27 68 68 -18 21 -18 21 10 14 16 -4
27 -2 27 4 0 5 -4 10 -9 10 -5 0 -11 9 -14 20 -5 20 -37 29 -37 10z"/>
<path d="M8220 4860 c0 -6 20 -10 45 -10 59 0 58 14 0 17 -25 1 -45 -2 -45 -7z"/>
<path d="M2395 4840 c-9 -15 3 -30 24 -30 25 0 33 11 20 27 -13 15 -35 17 -44
3z"/>
<path d="M2140 4811 c-14 -28 -12 -44 5 -37 8 3 15 1 15 -4 0 -6 -7 -10 -16
-10 -8 0 -13 -4 -9 -9 3 -6 18 -6 35 -1 19 5 28 5 25 -1 -4 -5 3 -9 14 -9 22
0 26 4 35 43 6 25 4 27 -28 27 -19 0 -38 5 -41 10 -10 16 -23 12 -35 -9z"/>
<path d="M8060 4812 c25 -16 107 -25 114 -13 5 7 -3 11 -21 11 -15 0 -46 3
-68 6 -28 4 -35 2 -25 -4z"/>
<path d="M2300 4799 c0 -7 10 -9 25 -5 27 7 35 -8 10 -18 -19 -7 -20 -26 -1
-26 8 0 24 14 36 30 l21 30 -45 0 c-27 0 -46 -5 -46 -11z"/>
<path d="M8210 4790 c20 -13 63 -13 55 0 -3 6 -21 10 -38 10 -24 0 -28 -3 -17
-10z"/>
<path d="M2608 4751 c5 -14 3 -14 -11 -3 -19 16 -37 8 -37 -18 0 -16 4 -17 38
-7 53 16 70 41 28 43 -19 1 -23 -2 -18 -15z"/>
<path d="M1920 4710 c0 -26 38 -47 46 -25 7 18 -12 45 -32 45 -8 0 -14 -9 -14
-20z"/>
<path d="M2182 4653 c3 -19 48 -32 48 -14 0 10 -31 31 -45 31 -4 0 -5 -8 -3
-17z"/>
<path d="M2295 3839 c-11 -4 -37 -8 -57 -8 -21 -1 -38 -6 -38 -12 0 -6 7 -8
16 -5 9 3 30 6 47 6 31 0 66 15 57 23 -3 3 -14 1 -25 -4z"/>
<path d="M2111 3809 c-55 -11 -64 -19 -20 -19 43 0 79 10 79 21 0 10 2 10 -59
-2z"/>
<path d="M8806 3805 c-3 -8 -11 -15 -18 -15 -9 0 -8 3 2 10 23 15 -9 13 -43
-2 -29 -14 -39 -45 -11 -34 9 3 34 6 56 6 30 0 39 3 35 14 -3 7 0 19 6 25 8 8
7 11 -5 11 -9 0 -18 -7 -22 -15z"/>
<path d="M3076 3785 c-7 -19 35 -24 74 -8 11 4 8 8 -10 13 -40 13 -57 11 -64
-5z"/>
<path d="M2162 3764 c-29 -13 -67 -23 -84 -21 -42 3 -49 -21 -8 -29 20 -5 35
-15 40 -29 5 -13 18 -30 30 -38 20 -14 20 -15 -16 -21 -55 -11 -32 -19 30 -12
l55 7 26 57 c14 31 33 65 43 75 14 16 14 19 2 27 -24 15 -61 10 -118 -16z"/>
<path d="M1892 3763 c-6 -2 -10 -9 -6 -14 8 -14 34 -11 50 6 14 13 13 15 -8
14 -13 0 -29 -3 -36 -6z"/>
<path d="M2345 3753 c-11 -3 -24 -10 -30 -15 -7 -7 1 -8 25 -3 19 5 47 9 63 9
15 1 27 4 27 9 0 8 -52 8 -85 0z"/>
<path d="M2740 3750 c-35 -7 -35 -7 10 -8 25 0 68 3 95 8 l50 7 -60 0 c-33 0
-76 -3 -95 -7z"/>
<path d="M1700 3725 c-54 -13 -54 -13 -15 -13 22 -1 54 5 70 13 37 17 17 17
-55 0z"/>
<path d="M2013 3733 c-16 -6 -17 -33 -3 -33 11 0 26 28 19 34 -2 2 -10 1 -16
-1z"/>
<path d="M2505 3720 c-27 -7 -25 -8 17 -9 26 0 50 4 53 9 7 11 -25 11 -70 0z"/>
<path d="M2408 3712 c-16 -2 -28 -8 -28 -13 0 -13 47 -11 55 2 9 14 5 15 -27
11z"/>
<path d="M1600 3680 c-26 -16 -5 -19 40 -5 l45 14 -35 0 c-19 0 -42 -3 -50 -9z"/>
<path d="M2253 3683 c-26 -10 -12 -19 22 -15 19 2 35 8 35 13 0 9 -36 11 -57
2z"/>
<path d="M1990 3650 c0 -5 9 -10 21 -10 11 0 17 5 14 10 -3 6 -13 10 -21 10
-8 0 -14 -4 -14 -10z"/>
<path d="M1515 3520 l-40 -20 53 4 c58 6 75 13 67 27 -9 14 -36 10 -80 -11z"/>
<path d="M8940 3501 c0 -14 28 -21 85 -21 71 0 79 16 12 24 -72 8 -97 8 -97
-3z"/>
<path d="M1633 3483 c-20 -3 -33 -10 -33 -18 0 -11 6 -12 33 -3 31 10 62 30
42 26 -6 0 -25 -3 -42 -5z"/>
<path d="M1330 3466 c-25 -6 -54 -17 -65 -24 -17 -11 -14 -11 20 -6 43 7 105
30 105 38 0 8 -7 7 -60 -8z"/>
<path d="M9015 3450 c-4 -6 10 -10 34 -10 23 0 41 5 41 10 0 6 -15 10 -34 10
-19 0 -38 -4 -41 -10z"/>
<path d="M10277 3224 c-14 -14 -6 -24 19 -24 16 0 24 5 22 13 -5 14 -31 21
-41 11z"/>
<path d="M9978 3069 c-27 -15 -22 -48 8 -60 33 -12 67 13 62 45 -3 24 -42 32
-70 15z"/>
<path d="M10182 2891 c-29 -27 -62 -53 -73 -56 -22 -7 -49 -32 -49 -46 0 -5
11 -9 25 -9 15 0 25 6 25 14 0 16 45 30 62 20 6 -4 1 -12 -13 -20 -13 -7 -19
-14 -14 -14 21 -1 35 -17 29 -33 -6 -16 -35 -25 -33 -9 3 18 -2 22 -20 12 -14
-7 -21 -6 -24 3 -2 6 -8 9 -12 5 -16 -15 6 -37 47 -49 56 -16 157 -16 187 0
41 23 91 73 91 93 0 55 -73 126 -137 135 -35 4 -43 0 -91 -46z"/>
<path d="M9682 2698 c-16 -16 -15 -23 4 -42 36 -37 107 -9 84 33 -12 24 -68
29 -88 9z"/>
<path d="M10090 2647 c-76 -38 4 -149 98 -134 73 12 94 67 43 118 -24 23 -38
29 -73 29 -24 0 -54 -6 -68 -13z"/>
<path d="M7590 2431 c0 -9 24 -21 42 -21 6 0 6 6 -2 15 -14 16 -40 20 -40 6z"/>
<path d="M8233 2433 c-7 -2 -13 -17 -13 -33 0 -39 50 -61 89 -39 52 29 34 80
-28 78 -20 0 -42 -3 -48 -6z"/>
<path d="M5610 2380 c0 -5 7 -10 15 -10 8 0 15 5 15 10 0 6 -7 10 -15 10 -8 0
-15 -4 -15 -10z"/>
<path d="M7410 2375 c-15 -18 -10 -45 12 -59 26 -16 53 14 44 48 -7 29 -36 35
-56 11z"/>
<path d="M5588 2352 c24 -24 54 -30 46 -9 -3 8 -10 14 -17 14 -7 0 -21 4 -31
9 -17 7 -17 5 2 -14z"/>
<path d="M5975 2347 c-39 -21 -39 -22 -13 -25 29 -3 81 25 72 39 -7 12 -12 11
-59 -14z"/>
<path d="M7327 2354 c-13 -13 -7 -24 14 -24 11 0 19 5 17 12 -5 14 -22 21 -31
12z"/>
<path d="M7084 2335 c-9 -22 4 -35 36 -35 30 0 45 21 27 39 -16 16 -57 14 -63
-4z"/>
<path d="M7706 2315 c18 -75 40 -105 28 -37 -3 20 -13 44 -21 52 -13 13 -13
11 -7 -15z"/>
<path d="M8220 2331 c0 -12 29 -35 36 -28 11 10 -5 37 -21 37 -8 0 -15 -4 -15
-9z"/>
<path d="M5543 2313 c-50 -17 -60 -46 -14 -37 25 5 32 2 45 -25 19 -37 51 -41
60 -8 10 39 6 65 -11 71 -10 3 -22 8 -28 10 -5 2 -29 -3 -52 -11z"/>
<path d="M6140 2316 c0 -9 5 -16 10 -16 6 0 10 4 10 9 0 6 -4 13 -10 16 -5 3
-10 -1 -10 -9z"/>
<path d="M5680 2299 c0 -5 5 -7 10 -4 6 3 10 8 10 11 0 2 -4 4 -10 4 -5 0 -10
-5 -10 -11z"/>
<path d="M7582 2288 c-32 -32 1 -88 51 -88 25 0 27 -3 28 -47 l1 -48 8 45 c5
25 13 58 19 73 14 37 14 43 -5 61 -18 19 -85 21 -102 4z"/>
<path d="M6286 2273 c-11 -11 -6 -23 9 -23 8 0 15 4 15 9 0 13 -16 22 -24 14z"/>
<path d="M7180 2270 c0 -5 5 -10 11 -10 5 0 7 5 4 10 -3 6 -8 10 -11 10 -2 0
-4 -4 -4 -10z"/>
<path d="M7222 2254 c-49 -34 -12 -94 59 -94 40 0 69 24 69 58 0 27 -36 52
-75 52 -17 0 -41 -7 -53 -16z"/>
<path d="M6975 2250 c3 -5 8 -10 11 -10 2 0 4 5 4 10 0 6 -5 10 -11 10 -5 0
-7 -4 -4 -10z"/>
<path d="M1840 2224 c0 -6 65 -34 77 -34 4 1 -3 10 -16 20 -21 18 -61 28 -61
14z"/>
<path d="M8270 2184 c-12 -14 -12 -18 5 -30 28 -21 50 -13 50 16 0 30 -35 39
-55 14z"/>
<path d="M5670 2166 c0 -13 20 -26 41 -26 5 0 9 9 9 20 0 15 -7 20 -25 20 -15
0 -25 -6 -25 -14z"/>
<path d="M3910 2140 c0 -5 5 -10 10 -10 6 0 10 5 10 10 0 6 -4 10 -10 10 -5 0
-10 -4 -10 -10z"/>
<path d="M7690 2118 c0 -25 3 -29 10 -18 13 20 13 50 0 50 -5 0 -10 -15 -10
-32z"/>
<path d="M5480 2136 c0 -2 7 -9 15 -16 12 -10 15 -10 15 4 0 9 -7 16 -15 16
-8 0 -15 -2 -15 -4z"/>
<path d="M5380 2110 c0 -5 7 -10 15 -10 8 0 15 5 15 10 0 6 -7 10 -15 10 -8 0
-15 -4 -15 -10z"/>
<path d="M5630 2070 c-46 -54 -51 -84 -9 -51 26 20 65 88 56 97 -2 3 -23 -18
-47 -46z"/>
<path d="M8680 2110 c0 -5 5 -10 10 -10 6 0 10 5 10 10 0 6 -4 10 -10 10 -5 0
-10 -4 -10 -10z"/>
<path d="M6560 2100 c0 -5 5 -10 10 -10 6 0 10 5 10 10 0 6 -4 10 -10 10 -5 0
-10 -4 -10 -10z"/>
<path d="M7295 2091 c5 -16 2 -18 -15 -14 -15 4 -20 1 -20 -15 0 -21 28 -38
41 -25 15 17 14 73 -2 73 -6 0 -8 -8 -4 -19z"/>
<path d="M8320 2104 c-16 -3 -32 -18 -45 -42 -17 -32 -25 -37 -60 -40 -76 -6
-100 -64 -47 -115 38 -36 81 -44 123 -21 20 10 59 19 95 20 77 2 138 32 152
74 16 43 -1 85 -43 104 -35 17 -132 27 -175 20z"/>
<path d="M5300 2079 c0 -5 5 -7 10 -4 6 3 10 8 10 11 0 2 -4 4 -10 4 -5 0 -10
-5 -10 -11z"/>
<path d="M5530 2082 c0 -12 23 -32 37 -32 18 0 16 27 -3 34 -21 8 -34 8 -34
-2z"/>
<path d="M7670 2065 c0 -14 4 -25 9 -25 4 0 6 11 3 25 -2 14 -6 25 -8 25 -2 0
-4 -11 -4 -25z"/>
<path d="M5405 2029 c-33 -21 -77 -48 -97 -59 -21 -11 -38 -25 -38 -30 0 -15
8 -12 43 13 18 13 62 41 99 63 37 21 68 42 68 47 0 12 -13 6 -75 -34z"/>
<path d="M6890 2055 c0 -8 5 -15 10 -15 6 0 10 7 10 15 0 8 -4 15 -10 15 -5 0
-10 -7 -10 -15z"/>
<path d="M905 2050 c-4 -6 21 -10 64 -10 91 0 100 14 10 17 -37 2 -71 -2 -74
-7z"/>
<path d="M6586 2007 c-4 -29 -2 -64 3 -77 8 -20 10 -9 10 53 1 42 -1 77 -3 77
-2 0 -7 -24 -10 -53z"/>
<path d="M5640 2021 c-6 -12 -10 -27 -7 -34 2 -7 -6 -16 -17 -22 -50 -25 -19
-85 44 -85 39 0 60 14 60 40 0 21 -31 50 -53 50 -20 0 -21 4 -6 32 7 13 8 23
1 30 -7 7 -14 3 -22 -11z"/>
<path d="M5831 1995 c-38 -33 -115 -124 -109 -131 3 -2 27 15 54 38 l48 43
-28 -48 c-17 -30 -24 -53 -19 -58 11 -11 68 105 59 120 -4 5 -2 12 4 16 11 7
33 45 26 45 -2 0 -18 -11 -35 -25z"/>
<path d="M5110 1995 c0 -8 7 -15 15 -15 8 0 15 7 15 15 0 8 -7 15 -15 15 -8 0
-15 -7 -15 -15z"/>
<path d="M5300 2000 c0 -5 5 -10 11 -10 5 0 7 5 4 10 -3 6 -8 10 -11 10 -2 0
-4 -4 -4 -10z"/>
<path d="M6097 1998 c-2 -7 0 -25 4 -40 4 -15 10 -71 14 -125 l7 -99 -26 -12
c-29 -13 -33 -24 -11 -42 17 -14 46 -6 71 21 15 17 16 24 6 39 -7 12 -12 60
-12 126 0 58 -5 114 -10 125 -12 21 -36 25 -43 7z"/>
<path d="M6640 2001 c0 -6 5 -13 10 -16 6 -3 10 1 10 9 0 9 -4 16 -10 16 -5 0
-10 -4 -10 -9z"/>
<path d="M7090 1948 c0 -13 8 -35 18 -50 16 -25 170 -188 177 -188 2 0 6 7 9
16 8 22 -109 200 -149 224 -42 26 -55 25 -55 -2z"/>
<path d="M5144 1946 c-9 -24 12 -44 28 -28 10 10 8 16 -5 29 -15 15 -17 15
-23 -1z"/>
<path d="M5955 1950 c-4 -7 2 -22 14 -33 17 -17 25 -19 39 -11 29 19 21 49
-15 52 -17 2 -34 -2 -38 -8z"/>
<path d="M5867 1928 c-35 -12 -32 -36 5 -58 25 -13 29 -13 44 1 17 18 12 54
-9 62 -7 2 -25 0 -40 -5z"/>
<path d="M7268 1889 c-41 -23 -3 -79 52 -79 31 0 50 17 50 45 0 12 -5 26 -12
33 -15 15 -66 15 -90 1z"/>
<path d="M5035 1840 c-24 -26 -16 -104 14 -133 15 -15 21 -17 21 -7 0 7 9 23
20 35 26 28 37 89 20 110 -17 21 -54 19 -75 -5z"/>
<path d="M4210 1795 c-9 -11 -10 -19 -3 -26 8 -8 13 -5 18 11 9 28 2 35 -15
15z"/>
<path d="M4500 1760 c0 -5 5 -10 11 -10 5 0 7 5 4 10 -3 6 -8 10 -11 10 -2 0
-4 -4 -4 -10z"/>
<path d="M5480 1748 c1 -32 26 -62 45 -55 18 7 20 48 3 65 -21 21 -48 14 -48
-10z"/>
<path d="M2060 1750 c0 -5 5 -10 11 -10 5 0 7 5 4 10 -3 6 -8 10 -11 10 -2 0
-4 -4 -4 -10z"/>
<path d="M5263 1748 c-49 -24 -15 -88 46 -88 44 0 71 16 71 44 0 47 -62 71
-117 44z"/>
<path d="M5876 1747 c-22 -16 -13 -41 21 -56 51 -23 94 18 53 51 -26 21 -50
23 -74 5z"/>
<path d="M4637 1724 c-14 -15 -6 -34 14 -34 14 0 19 5 17 17 -3 18 -20 27 -31
17z"/>
<path d="M4055 1709 c-11 -17 1 -21 15 -4 8 9 8 15 2 15 -6 0 -14 -5 -17 -11z"/>
<path d="M4310 1700 c0 -13 5 -18 15 -14 8 4 15 10 15 14 0 4 -7 10 -15 14
-10 4 -15 -1 -15 -14z"/>
<path d="M2510 1683 c-13 -15 -12 -16 4 -10 10 4 20 7 22 7 2 0 4 5 4 10 0 15
-13 12 -30 -7z"/>
<path d="M5812 1648 c-34 -34 17 -91 77 -86 31 3 36 7 39 30 6 50 -80 92 -116
56z"/>
<path d="M4020 1640 c0 -5 5 -10 10 -10 6 0 10 5 10 10 0 6 -4 10 -10 10 -5 0
-10 -4 -10 -10z"/>
<path d="M6578 1575 c-36 -34 -37 -35 -22 -65 16 -31 31 -42 20 -15 -3 9 7 29
24 49 28 31 40 66 23 66 -5 0 -25 -16 -45 -35z"/>
<path d="M4050 1585 c0 -9 5 -15 11 -13 6 2 11 8 11 13 0 5 -5 11 -11 13 -6 2
-11 -4 -11 -13z"/>
<path d="M4030 1516 c0 -14 5 -28 10 -31 6 -4 10 7 10 24 0 17 -4 31 -10 31
-5 0 -10 -11 -10 -24z"/>
<path d="M5310 1516 c0 -17 27 -29 35 -16 4 6 3 15 0 20 -9 15 -35 12 -35 -4z"/>
<path d="M3990 1464 c0 -14 4 -23 10 -19 6 3 10 15 10 26 0 10 -4 19 -10 19
-5 0 -10 -12 -10 -26z"/>
<path d="M4773 1424 c-8 -21 13 -42 28 -27 13 13 5 43 -11 43 -6 0 -13 -7 -17
-16z"/>
<path d="M4700 1356 c0 -19 4 -24 15 -19 18 6 16 34 -2 41 -8 2 -13 -6 -13
-22z"/>
<path d="M4375 1300 c-3 -5 -3 -15 1 -21 6 -11 23 6 24 24 0 10 -18 9 -25 -3z"/>
</g>
</svg>
